<svg xmlns="http://www.w3.org/2000/svg" viewBox="0 0 960 640" width="960" height="640" role="img" aria-label="La berge que la brume quitte">
  <title>La berge que la brume quitte</title>
  <desc>Un saule, une barque, un ponton, un gros caillou, un escargot et un nénuphar sont séparés dans un marais calme.</desc>
  <!-- BROUILLON. Le raster est 1536 × 1024 (ratio 3:2 exact avec le viewBox). Chaque zone est un polygone fermé qui suit la silhouette observée sur brume-v3.png. -->
  <g id="calque-fond">
    <image data-fond-illustre="brume-v3" href="brume-v3.png" x="0" y="0" width="960" height="640" preserveAspectRatio="xMidYMid meet"/>
  </g>
  <g id="calque-zones" fill="#8E97A8" stroke="#1B2440" stroke-width="4" stroke-linejoin="round" opacity="0" aria-hidden="true">
    <path id="ciel" class="zone" data-region-svg="ciel" fill-rule="evenodd" d="M475,0 L960,0 L960,205 L940,204 L920,196 L900,200 L880,191 L858,205 L836,202 L812,214 L790,210 L768,218 L746,211 L722,205 L698,214 L676,201 L654,207 L632,190 L608,185 L588,171 L566,164 L544,176 L522,164 L500,158 L475,150 Z"/>
    <path id="saule-de-la-berge" class="zone" data-region-svg="saule-de-la-berge" fill-rule="evenodd" d="M96.9,23.1 L85,53.8 L131.9,100 L147.5,135 L122.5,203.1 L124.4,231.2 L98.8,268.1 L65.6,286.9 L73.8,301.9 L56.9,307.5 L57.5,318.1 L95,313.1 L87.5,281.2 L120.6,289.4 L135,273.8 L165,302.5 L209.4,320.6 L183.8,288.1 L228.1,297.5 L180.6,268.1 L176.9,216.2 L201.2,146.2 L233.8,113.8 L231.9,105.6 L210.6,110.6 L245,43.1 L219.4,44.4 L208.8,73.8 L199.4,73.1 L195.6,43.1 L182.5,108.8 L166.2,116.9 L145.6,93.8 L136.9,35 L133.8,76.9 L106.9,65 Z"/>
    <path id="barque-echouee" class="zone" data-region-svg="barque-echouee" fill-rule="evenodd" d="M268,332 L285,323 L320,327 L360,335 L410,345 L478,365 L490,382 L478,414 L452,435 L410,442 L360,430 L320,410 L290,380 Z"/>
    <path id="route" class="zone" fill-rule="nonzero" d="M566.875,393.125 L581.875,387.5 L583.125,355 L591.875,351.875 L601.875,352.5 L609.375,356.25 L609.375,386.875 L717.5,389.375 L748.75,383.125 L748.75,366.25 L758.125,366.25 L768.125,369.375 L770,387.5 L808.75,388.125 L808.125,370 L816.875,366.875 L826.875,369.375 L828.125,386.875 L873.125,396.25 L871.875,375 L879.375,373.125 L890,378.125 L891.875,396.875 L906.875,401.25 L916.875,409.375 L911.875,421.25 L891.25,426.875 L868.75,431.25 L874.375,465.625 L864.375,468.75 L854.375,468.75 L854.375,430 L788.75,439.375 L773.125,440.625 L774.375,455.625 L769.375,484.375 L754.375,486.25 L751.875,440.625 L724.375,441.875 L674.375,437.5 L668.75,437.5 L671.25,478.75 L657.5,482.5 L645,476.875 L647.5,436.25 L624.375,434.375 L597.5,430 L597.5,449.375 L590,450 L583.125,445.625 L583.125,426.25 L576.875,424.375 L568.125,418.125 Z"/>
    <path id="caillou" class="zone" data-region-svg="caillou" fill-rule="evenodd" d="M34,500 L42,460 L60,418 L88,385 L120,360 L155,342 L190,344 L220,365 L243,400 L259,445 L266,475 L260,506 L245,525 L205,530 L165,528 L130,520 L95,521 L65,515 Z"/>
    <path id="roue" class="zone" fill-rule="nonzero" d="M275,580.625 L290.625,573.75 L297.5,556.875 L298.75,542.5 L306.25,528.125 L320.625,517.5 L338.125,511.875 L353.75,515 L365.625,523.75 L370,533.75 L371.25,550.625 L376.25,536.25 L381.875,531.875 L385,538.75 L391.25,542.5 L395,552.5 L393.75,564.375 L388.75,573.75 L412.5,583.125 L426.875,586.25 L416.875,588.75 L369.375,590 L324.375,587.5 L298.125,586.875 Z M373.75,538.75 L371.25,514.375 L373.75,512.5 L376.25,515 L377.5,536.875 Z M385,540 L384.375,516.875 L386.875,514.375 L389.375,517.5 L387.5,541.25 Z"/>
    <path id="nenuphar-perdu" class="zone" fill-rule="nonzero" d="M504.375,520 L496.25,506.25 L507.5,510 L518.75,518.75 L517.5,498.75 L523.125,486.875 L531.25,493.75 L543.75,510.625 L543.125,487.5 L549.375,481.25 L556.875,493.75 L561.25,510.625 L566.25,493.125 L579.375,488.75 L578.125,506.875 L573.75,522.5 L589.375,510 L603.125,505.625 L611.875,509.375 L599.375,527.5 L588.125,536.875 L603.125,536.875 L605,541.875 L592.5,549.375 L575.625,553.125 L563.125,562.5 L550,556.875 L533.75,553.75 L518.125,546.25 L506.875,536.875 L498.75,528.125 Z"/>
  </g>
  <g id="calque-trait" fill="none" stroke="#1B2440" stroke-width="4" stroke-linecap="round" stroke-linejoin="round" opacity="0" aria-hidden="true"/>
</svg>
